<svg xmlns="http://www.w3.org/2000/svg" viewBox="0 0 512 512">
  <defs>
    <linearGradient id="purpleGrad" x1="0%" y1="0%" x2="100%" y2="100%">
      <stop offset="0%" style="stop-color:#9333ea;stop-opacity:1" />
      <stop offset="100%" style="stop-color:#7c3aed;stop-opacity:1" />
    </linearGradient>
  </defs>
  <circle cx="256" cy="256" r="248" fill="#1a1a1a"/>
  <path fill="url(#purpleGrad)" d="M256 80c-20 0-38 8-52 20-10-8-22-12-36-12-32 0-58 26-58 58 0 8 2 16 4 22-28 18-46 50-46 86 0 56 46 102 102 102 20 0 38-6 54-16 16 10 34 16 54 16 56 0 102-46 102-102 0-36-18-68-46-86 2-6 4-14 4-22 0-32-26-58-58-58-14 0-26 4-36 12-14-12-32-20-52-20zm-88 120c8 0 14 6 14 14s-6 14-14 14-14-6-14-14 6-14 14-14zm176 0c8 0 14 6 14 14s-6 14-14 14-14-6-14-14 6-14 14-14zM256 280c-30 0-56 16-70 40h140c-14-24-40-40-70-40z"/>
  <ellipse cx="168" cy="214" rx="8" ry="10" fill="#1a1a1a"/>
  <ellipse cx="344" cy="214" rx="8" ry="10" fill="#1a1a1a"/>
  <path fill="#a855f7" d="M200 160c-4-8-6-16-6-24 0-18 10-34 24-42-6 2-12 6-16 10-8 8-12 18-12 28 0 8 2 16 6 24 2 4 4 8 6 12-4-2-6-4-8-8zm112 0c4-8 6-16 6-24 0-18-10-34-24-42 6 2 12 6 16 10 8 8 12 18 12 28 0 8-2 16-6 24-2 4-4 8-6 12 4-2 6-4 8-8z"/>
</svg>

